<?xml version="1.0" encoding="UTF-8"?>
<svg xmlns:xlink="http://www.w3.org/1999/xlink" xmlns="http://www.w3.org/2000/svg" contentScriptType="text/ecmascript" width="630" zoomAndPan="magnify" contentStyleType="text/css" height="1409" preserveAspectRatio="xMidYMid meet" version="1.0">
<radialGradient xlink:actuate="onLoad" xlink:type="simple" id="sphereTheme" xlink:show="other" xmlns:xlink="http://www.w3.org/1999/xlink">
<stop style="stop-color:#C6DD3A" offset="0"/>
<stop style="stop-color:#C3DA39" offset="0.211"/>
<stop style="stop-color:#B8CF37" offset="0.3881"/>
<stop style="stop-color:#A7BE34" offset="0.5529"/>
<stop style="stop-color:#8EA630" offset="0.7103"/>
<stop style="stop-color:#6F872A" offset="0.861"/>
<stop style="stop-color:#4B6323" offset="1"/>
</radialGradient>
<circle fill="url(#sphereTheme)" r="7.857142857142858" cx="30" cy="30"/>
<text x="37.85714285714286" y="30" id="text23" style="font-size:10px;text-anchor:start;fill:#000000;font-family:Verdana">MULTI-ATTRIBUTE-GROUP-DECISION-MAKING</text>
<circle fill="url(#sphereTheme)" r="13.928571428571429" cx="30" cy="112"/>
<text x="43.92857142857143" y="112" id="text23" style="font-size:10px;text-anchor:start;fill:#000000;font-family:Verdana">FUZZY-SETS</text>
<circle fill="url(#sphereTheme)" r="21.428571428571427" cx="30" cy="194"/>
<text x="51.42857142857143" y="194" id="text23" style="font-size:10px;text-anchor:start;fill:#000000;font-family:Verdana">OWA-OPERATORS</text>
<circle fill="url(#sphereTheme)" r="20.0" cx="30" cy="276"/>
<text x="50.0" y="276" id="text23" style="font-size:10px;text-anchor:start;fill:#000000;font-family:Verdana">CONSISTENCY</text>
<circle fill="url(#sphereTheme)" r="17.5" cx="30" cy="358"/>
<text x="47.5" y="358" id="text23" style="font-size:10px;text-anchor:start;fill:#000000;font-family:Verdana">TOPSIS</text>
<circle fill="url(#sphereTheme)" r="15.357142857142858" cx="30" cy="440"/>
<text x="45.35714285714286" y="440" id="text23" style="font-size:10px;text-anchor:start;fill:#000000;font-family:Verdana">DECISION-MAKING</text>
<circle fill="url(#sphereTheme)" r="11.785714285714285" cx="30" cy="522"/>
<text x="41.785714285714285" y="522" id="text23" style="font-size:10px;text-anchor:start;fill:#000000;font-family:Verdana">INFORMATION-RETRIEVAL</text>
<circle fill="url(#sphereTheme)" r="9.285714285714285" cx="30" cy="604"/>
<text x="39.285714285714285" y="604" id="text23" style="font-size:10px;text-anchor:start;fill:#000000;font-family:Verdana">COMPUTER-MEDIATED-COMMUNICATION</text>
<circle fill="url(#sphereTheme)" r="9.642857142857142" cx="30" cy="686"/>
<text x="39.64285714285714" y="686" id="text23" style="font-size:10px;text-anchor:start;fill:#000000;font-family:Verdana">MAJORITY</text>
<circle fill="url(#sphereTheme)" r="10.714285714285715" cx="30" cy="768"/>
<text x="40.714285714285715" y="768" id="text23" style="font-size:10px;text-anchor:start;fill:#000000;font-family:Verdana">ALTERNATIVES</text>
<circle fill="url(#sphereTheme)" r="7.5" cx="30" cy="850"/>
<text x="37.5" y="850" id="text23" style="font-size:10px;text-anchor:start;fill:#000000;font-family:Verdana">CUSTOMER-REQUIREMENTS</text>
<circle fill="url(#sphereTheme)" r="7.142857142857142" cx="30" cy="932"/>
<text x="37.14285714285714" y="932" id="text23" style="font-size:10px;text-anchor:start;fill:#000000;font-family:Verdana">EXPERT-SYSTEM</text>
<circle fill="url(#sphereTheme)" r="8.214285714285714" cx="30" cy="1014"/>
<text x="38.214285714285715" y="1014" id="text23" style="font-size:10px;text-anchor:start;fill:#000000;font-family:Verdana">EXTENT-ANALYSIS-METHOD</text>
<circle fill="url(#sphereTheme)" r="5.0" cx="30" cy="1096"/>
<text x="35.0" y="1096" id="text23" style="font-size:10px;text-anchor:start;fill:#000000;font-family:Verdana">GROUP-CONSENSUS-OPINION</text>
<circle fill="url(#sphereTheme)" r="5.714285714285714" cx="30" cy="1178"/>
<text x="35.714285714285715" y="1178" id="text23" style="font-size:10px;text-anchor:start;fill:#000000;font-family:Verdana">PUBLIC-INVESTMENT-DECISIONS</text>
<circle fill="url(#sphereTheme)" r="5.357142857142857" cx="30" cy="1260"/>
<text x="35.357142857142854" y="1260" id="text23" style="font-size:10px;text-anchor:start;fill:#000000;font-family:Verdana">TRAPEZOID-FUZZY-NUMBERS</text>
<circle fill="url(#sphereTheme)" r="5.714285714285714" cx="30" cy="1342"/>
<text x="35.714285714285715" y="1342" id="text23" style="font-size:10px;text-anchor:start;fill:#000000;font-family:Verdana">FUZZY-MAJORITY</text>
<circle fill="url(#sphereTheme)" r="30.0" cx="240" cy="30"/>
<text x="270.0" y="30" id="text23" style="font-size:10px;text-anchor:start;fill:#000000;font-family:Verdana">CONSISTENCY</text>
<circle fill="url(#sphereTheme)" r="21.785714285714285" cx="240" cy="108"/>
<text x="261.7857142857143" y="108" id="text23" style="font-size:10px;text-anchor:start;fill:#000000;font-family:Verdana">OWA-OPERATORS</text>
<circle fill="url(#sphereTheme)" r="22.857142857142858" cx="240" cy="186"/>
<text x="262.85714285714283" y="186" id="text23" style="font-size:10px;text-anchor:start;fill:#000000;font-family:Verdana">TOPSIS</text>
<circle fill="url(#sphereTheme)" r="22.5" cx="240" cy="264"/>
<text x="262.5" y="264" id="text23" style="font-size:10px;text-anchor:start;fill:#000000;font-family:Verdana">VAGUE-SET-THEORY</text>
<circle fill="url(#sphereTheme)" r="16.42857142857143" cx="240" cy="342"/>
<text x="256.42857142857144" y="342" id="text23" style="font-size:10px;text-anchor:start;fill:#000000;font-family:Verdana">ANALYTIC-NETWORK-PROCESS</text>
<circle fill="url(#sphereTheme)" r="15.714285714285714" cx="240" cy="420"/>
<text x="255.71428571428572" y="420" id="text23" style="font-size:10px;text-anchor:start;fill:#000000;font-family:Verdana">DECISION-MAKING</text>
<circle fill="url(#sphereTheme)" r="17.857142857142854" cx="240" cy="498"/>
<text x="257.85714285714283" y="498" id="text23" style="font-size:10px;text-anchor:start;fill:#000000;font-family:Verdana">LINGUISTIC-VARIABLES</text>
<circle fill="url(#sphereTheme)" r="22.5" cx="240" cy="576"/>
<text x="262.5" y="576" id="text23" style="font-size:10px;text-anchor:start;fill:#000000;font-family:Verdana">FUZZY-SETS</text>
<circle fill="url(#sphereTheme)" r="14.642857142857144" cx="240" cy="654"/>
<text x="254.64285714285714" y="654" id="text23" style="font-size:10px;text-anchor:start;fill:#000000;font-family:Verdana">MAJORITY</text>
<circle fill="url(#sphereTheme)" r="15.714285714285714" cx="240" cy="732"/>
<text x="255.71428571428572" y="732" id="text23" style="font-size:10px;text-anchor:start;fill:#000000;font-family:Verdana">ADDITIVE-CONSISTENCY</text>
<circle fill="url(#sphereTheme)" r="10.357142857142858" cx="240" cy="810"/>
<text x="250.35714285714286" y="810" id="text23" style="font-size:10px;text-anchor:start;fill:#000000;font-family:Verdana">GROUP-MEMBERS</text>
<circle fill="url(#sphereTheme)" r="8.571428571428571" cx="240" cy="888"/>
<text x="248.57142857142858" y="888" id="text23" style="font-size:10px;text-anchor:start;fill:#000000;font-family:Verdana">RECOMMENDER-SYSTEM</text>
<circle fill="url(#sphereTheme)" r="7.5" cx="240" cy="966"/>
<text x="247.5" y="966" id="text23" style="font-size:10px;text-anchor:start;fill:#000000;font-family:Verdana">NEURAL-NETWORKS</text>
<circle fill="url(#sphereTheme)" r="11.785714285714285" cx="240" cy="1044"/>
<text x="251.78571428571428" y="1044" id="text23" style="font-size:10px;text-anchor:start;fill:#000000;font-family:Verdana">CONSISTENCY-MEASURES</text>
<circle fill="url(#sphereTheme)" r="10.357142857142858" cx="240" cy="1122"/>
<text x="250.35714285714286" y="1122" id="text23" style="font-size:10px;text-anchor:start;fill:#000000;font-family:Verdana">CHOQUET-INTEGRAL</text>
<circle fill="url(#sphereTheme)" r="6.428571428571429" cx="240" cy="1200"/>
<text x="246.42857142857142" y="1200" id="text23" style="font-size:10px;text-anchor:start;fill:#000000;font-family:Verdana">MULTIDIMENSIONAL-ANALYSIS</text>
<circle fill="url(#sphereTheme)" r="7.857142857142858" cx="240" cy="1278"/>
<text x="247.85714285714286" y="1278" id="text23" style="font-size:10px;text-anchor:start;fill:#000000;font-family:Verdana">FUZZY-GAME-THEORY</text>
<circle fill="url(#sphereTheme)" r="6.785714285714286" cx="240" cy="1356"/>
<text x="246.78571428571428" y="1356" id="text23" style="font-size:10px;text-anchor:start;fill:#000000;font-family:Verdana">PERSONALITY</text>
<line y2="264.0" stroke-width="0.41666666666666663" x1="37.85714285714286" x2="217.5" stroke="black" y1="30.0"/>
<line x1="37.85714285714286" x2="229.64285714285714" y1="30.0" style="stroke-dasharray: 9, 5" y2="810.0" stroke="black" stroke-width="0.5555555555555556"/>
<line x1="43.92857142857143" x2="217.14285714285714" y1="112.0" style="stroke-dasharray: 9, 5" y2="186.0" stroke="black" stroke-width="0.41666666666666663"/>
<line y2="576.0" stroke-width="0.41666666666666663" x1="43.92857142857143" x2="217.5" stroke="black" y1="112.0"/>
<line x1="51.42857142857143" x2="210.0" y1="194.0" style="stroke-dasharray: 9, 5" y2="30.0" stroke="black" stroke-width="1.25"/>
<line y2="108.0" stroke-width="1.25" x1="51.42857142857143" x2="218.21428571428572" stroke="black" y1="194.0"/>
<line y2="30.0" stroke-width="1.6666666666666665" x1="50.0" x2="210.0" stroke="black" y1="276.0"/>
<line x1="50.0" x2="217.5" y1="276.0" style="stroke-dasharray: 9, 5" y2="576.0" stroke="black" stroke-width="0.41666666666666663"/>
<line y2="732.0" stroke-width="1.5" x1="50.0" x2="224.28571428571428" stroke="black" y1="276.0"/>
<line y2="888.0" stroke-width="0.8333333333333333" x1="50.0" x2="231.42857142857142" stroke="black" y1="276.0"/>
<line y2="186.0" stroke-width="1.25" x1="47.5" x2="217.14285714285714" stroke="black" y1="358.0"/>
<line y2="264.0" stroke-width="1.25" x1="47.5" x2="217.5" stroke="black" y1="358.0"/>
<line x1="47.5" x2="223.57142857142856" y1="358.0" style="stroke-dasharray: 9, 5" y2="342.0" stroke="black" stroke-width="0.8333333333333333"/>
<line x1="47.5" x2="222.14285714285714" y1="358.0" style="stroke-dasharray: 9, 5" y2="498.0" stroke="black" stroke-width="0.41666666666666663"/>
<line x1="47.5" x2="217.5" y1="358.0" style="stroke-dasharray: 9, 5" y2="576.0" stroke="black" stroke-width="0.41666666666666663"/>
<line y2="420.0" stroke-width="0.41666666666666663" x1="45.35714285714286" x2="224.28571428571428" stroke="black" y1="440.0"/>
<line x1="45.35714285714286" x2="222.14285714285714" y1="440.0" style="stroke-dasharray: 9, 5" y2="498.0" stroke="black" stroke-width="0.41666666666666663"/>
<line x1="45.35714285714286" x2="217.5" y1="440.0" style="stroke-dasharray: 9, 5" y2="576.0" stroke="black" stroke-width="0.8333333333333333"/>
<line x1="45.35714285714286" x2="225.35714285714286" y1="440.0" style="stroke-dasharray: 9, 5" y2="654.0" stroke="black" stroke-width="1.0"/>
<line x1="45.35714285714286" x2="224.28571428571428" y1="440.0" style="stroke-dasharray: 9, 5" y2="732.0" stroke="black" stroke-width="0.5"/>
<line y2="498.0" stroke-width="0.625" x1="41.785714285714285" x2="222.14285714285714" stroke="black" y1="522.0"/>
<line y2="888.0" stroke-width="1.6666666666666665" x1="41.785714285714285" x2="231.42857142857142" stroke="black" y1="522.0"/>
<line y2="654.0" stroke-width="2.0" x1="39.64285714285714" x2="225.35714285714286" stroke="black" y1="686.0"/>
<line x1="40.714285714285715" x2="217.14285714285714" y1="768.0" style="stroke-dasharray: 9, 5" y2="186.0" stroke="black" stroke-width="1.0"/>
<line y2="342.0" stroke-width="1.0" x1="40.714285714285715" x2="223.57142857142856" stroke="black" y1="768.0"/>
<line x1="40.714285714285715" x2="224.28571428571428" y1="768.0" style="stroke-dasharray: 9, 5" y2="420.0" stroke="black" stroke-width="1.0"/>
<line x1="40.714285714285715" x2="217.5" y1="768.0" style="stroke-dasharray: 9, 5" y2="576.0" stroke="black" stroke-width="1.0"/>
<line y2="966.0" stroke-width="1.25" x1="38.214285714285715" x2="232.5" stroke="black" y1="1014.0"/>
<line y2="654.0" stroke-width="1.6666666666666665" x1="35.714285714285715" x2="225.35714285714286" stroke="black" y1="1342.0"/>
<circle fill="url(#sphereTheme)" r="24.28571428571429" cx="450" cy="30"/>
<text x="474.2857142857143" y="30" id="text23" style="font-size:10px;text-anchor:start;fill:#000000;font-family:Verdana">TERM-SETS</text>
<circle fill="url(#sphereTheme)" r="20.714285714285715" cx="450" cy="91"/>
<text x="470.7142857142857" y="91" id="text23" style="font-size:10px;text-anchor:start;fill:#000000;font-family:Verdana">AHP</text>
<circle fill="url(#sphereTheme)" r="18.92857142857143" cx="450" cy="152"/>
<text x="468.92857142857144" y="152" id="text23" style="font-size:10px;text-anchor:start;fill:#000000;font-family:Verdana">CONSENSUS</text>
<circle fill="url(#sphereTheme)" r="19.285714285714285" cx="450" cy="213"/>
<text x="469.2857142857143" y="213" id="text23" style="font-size:10px;text-anchor:start;fill:#000000;font-family:Verdana">SIMILARITY-MEASURES</text>
<circle fill="url(#sphereTheme)" r="17.5" cx="450" cy="274"/>
<text x="467.5" y="274" id="text23" style="font-size:10px;text-anchor:start;fill:#000000;font-family:Verdana">MULTI-ATTRIBUTE-GROUP-DECISION-MAKING</text>
<circle fill="url(#sphereTheme)" r="14.285714285714286" cx="450" cy="335"/>
<text x="464.2857142857143" y="335" id="text23" style="font-size:10px;text-anchor:start;fill:#000000;font-family:Verdana">VIKOR-METHOD</text>
<circle fill="url(#sphereTheme)" r="13.928571428571429" cx="450" cy="396"/>
<text x="463.92857142857144" y="396" id="text23" style="font-size:10px;text-anchor:start;fill:#000000;font-family:Verdana">UNCERTAINTY</text>
<circle fill="url(#sphereTheme)" r="14.642857142857144" cx="450" cy="457"/>
<text x="464.64285714285717" y="457" id="text23" style="font-size:10px;text-anchor:start;fill:#000000;font-family:Verdana">CONSENSUS-REACHING-PROCESS</text>
<circle fill="url(#sphereTheme)" r="13.571428571428571" cx="450" cy="518"/>
<text x="463.57142857142856" y="518" id="text23" style="font-size:10px;text-anchor:start;fill:#000000;font-family:Verdana">FUZZY-SETS</text>
<circle fill="url(#sphereTheme)" r="12.857142857142858" cx="450" cy="579"/>
<text x="462.85714285714283" y="579" id="text23" style="font-size:10px;text-anchor:start;fill:#000000;font-family:Verdana">SUPPLIER-SELECTION</text>
<circle fill="url(#sphereTheme)" r="16.07142857142857" cx="450" cy="640"/>
<text x="466.07142857142856" y="640" id="text23" style="font-size:10px;text-anchor:start;fill:#000000;font-family:Verdana">MULTI-CRITERIA-GROUP-DECISION-MAKING</text>
<circle fill="url(#sphereTheme)" r="12.5" cx="450" cy="701"/>
<text x="462.5" y="701" id="text23" style="font-size:10px;text-anchor:start;fill:#000000;font-family:Verdana">LINGUISTIC-TERM-SETS</text>
<circle fill="url(#sphereTheme)" r="10.357142857142858" cx="450" cy="762"/>
<text x="460.35714285714283" y="762" id="text23" style="font-size:10px;text-anchor:start;fill:#000000;font-family:Verdana">INFORMATION-AGGREGATION</text>
<circle fill="url(#sphereTheme)" r="10.714285714285715" cx="450" cy="823"/>
<text x="460.7142857142857" y="823" id="text23" style="font-size:10px;text-anchor:start;fill:#000000;font-family:Verdana">WEIGHTED-AVERAGING-OPERATORS</text>
<circle fill="url(#sphereTheme)" r="10.0" cx="450" cy="884"/>
<text x="460.0" y="884" id="text23" style="font-size:10px;text-anchor:start;fill:#000000;font-family:Verdana">RECOMMENDER-SYSTEM</text>
<circle fill="url(#sphereTheme)" r="9.642857142857142" cx="450" cy="945"/>
<text x="459.64285714285717" y="945" id="text23" style="font-size:10px;text-anchor:start;fill:#000000;font-family:Verdana">GENETIC-ALGORITHM</text>
<circle fill="url(#sphereTheme)" r="7.142857142857142" cx="450" cy="1006"/>
<text x="457.14285714285717" y="1006" id="text23" style="font-size:10px;text-anchor:start;fill:#000000;font-family:Verdana">MULTI-AGENT-SYSTEMS</text>
<circle fill="url(#sphereTheme)" r="9.642857142857142" cx="450" cy="1067"/>
<text x="459.64285714285717" y="1067" id="text23" style="font-size:10px;text-anchor:start;fill:#000000;font-family:Verdana">PRIORITY-WEIGHTS</text>
<circle fill="url(#sphereTheme)" r="8.571428571428571" cx="450" cy="1128"/>
<text x="458.57142857142856" y="1128" id="text23" style="font-size:10px;text-anchor:start;fill:#000000;font-family:Verdana">RANKING-METHOD</text>
<circle fill="url(#sphereTheme)" r="11.428571428571427" cx="450" cy="1189"/>
<text x="461.42857142857144" y="1189" id="text23" style="font-size:10px;text-anchor:start;fill:#000000;font-family:Verdana">MEMBERSHIP-GRADES</text>
<circle fill="url(#sphereTheme)" r="10.714285714285715" cx="450" cy="1250"/>
<text x="460.7142857142857" y="1250" id="text23" style="font-size:10px;text-anchor:start;fill:#000000;font-family:Verdana">LINGUISTIC-INFORMATION</text>
<circle fill="url(#sphereTheme)" r="8.928571428571429" cx="450" cy="1311"/>
<text x="458.92857142857144" y="1311" id="text23" style="font-size:10px;text-anchor:start;fill:#000000;font-family:Verdana">GEOMETRIC-OPERATORS</text>
<circle fill="url(#sphereTheme)" r="9.642857142857142" cx="450" cy="1372"/>
<text x="459.64285714285717" y="1372" id="text23" style="font-size:10px;text-anchor:start;fill:#000000;font-family:Verdana">PRIORITY</text>
<line y2="30.0" stroke-width="1.25" x1="270.0" x2="425.7142857142857" stroke="black" y1="30.0"/>
<line y2="91.0" stroke-width="1.6666666666666665" x1="270.0" x2="429.2857142857143" stroke="black" y1="30.0"/>
<line y2="152.0" stroke-width="0.8333333333333333" x1="270.0" x2="431.07142857142856" stroke="black" y1="30.0"/>
<line y2="1067.0" stroke-width="1.0" x1="270.0" x2="440.35714285714283" stroke="black" y1="30.0"/>
<line y2="30.0" stroke-width="1.25" x1="261.7857142857143" x2="425.7142857142857" stroke="black" y1="108.0"/>
<line x1="261.7857142857143" x2="430.7142857142857" y1="108.0" style="stroke-dasharray: 9, 5" y2="213.0" stroke="black" stroke-width="0.41666666666666663"/>
<line y2="274.0" stroke-width="0.41666666666666663" x1="261.7857142857143" x2="432.5" stroke="black" y1="108.0"/>
<line x1="261.7857142857143" x2="439.2857142857143" y1="108.0" style="stroke-dasharray: 9, 5" y2="823.0" stroke="black" stroke-width="1.4285714285714284"/>
<line x1="261.7857142857143" x2="441.07142857142856" y1="108.0" style="stroke-dasharray: 9, 5" y2="1311.0" stroke="black" stroke-width="1.6666666666666665"/>
<line y2="91.0" stroke-width="0.8333333333333333" x1="262.85714285714283" x2="429.2857142857143" stroke="black" y1="186.0"/>
<line x1="262.85714285714283" x2="435.7142857142857" y1="186.0" style="stroke-dasharray: 9, 5" y2="335.0" stroke="black" stroke-width="0.8333333333333333"/>
<line x1="262.85714285714283" x2="437.14285714285717" y1="186.0" style="stroke-dasharray: 9, 5" y2="579.0" stroke="black" stroke-width="0.41666666666666663"/>
<line y2="640.0" stroke-width="0.41666666666666663" x1="262.85714285714283" x2="433.92857142857144" stroke="black" y1="186.0"/>
<line y2="213.0" stroke-width="2.0833333333333335" x1="262.5" x2="430.7142857142857" stroke="black" y1="264.0"/>
<line y2="274.0" stroke-width="0.41666666666666663" x1="262.5" x2="432.5" stroke="black" y1="264.0"/>
<line x1="262.5" x2="437.14285714285717" y1="264.0" style="stroke-dasharray: 9, 5" y2="579.0" stroke="black" stroke-width="0.41666666666666663"/>
<line x1="262.5" x2="441.42857142857144" y1="264.0" style="stroke-dasharray: 9, 5" y2="1128.0" stroke="black" stroke-width="1.25"/>
<line x1="256.42857142857144" x2="436.42857142857144" y1="342.0" style="stroke-dasharray: 9, 5" y2="518.0" stroke="black" stroke-width="0.41666666666666663"/>
<line y2="579.0" stroke-width="1.25" x1="256.42857142857144" x2="437.14285714285717" stroke="black" y1="342.0"/>
<line x1="256.42857142857144" x2="433.92857142857144" y1="342.0" style="stroke-dasharray: 9, 5" y2="640.0" stroke="black" stroke-width="0.41666666666666663"/>
<line x1="256.42857142857144" x2="439.2857142857143" y1="342.0" style="stroke-dasharray: 9, 5" y2="1250.0" stroke="black" stroke-width="1.25"/>
<line y2="396.0" stroke-width="0.41666666666666663" x1="255.71428571428572" x2="436.07142857142856" stroke="black" y1="420.0"/>
<line x1="255.71428571428572" x2="435.35714285714283" y1="420.0" style="stroke-dasharray: 9, 5" y2="457.0" stroke="black" stroke-width="0.41666666666666663"/>
<line x1="255.71428571428572" x2="437.14285714285717" y1="420.0" style="stroke-dasharray: 9, 5" y2="579.0" stroke="black" stroke-width="0.41666666666666663"/>
<line x1="255.71428571428572" x2="439.64285714285717" y1="420.0" style="stroke-dasharray: 9, 5" y2="762.0" stroke="black" stroke-width="0.625"/>
<line y2="945.0" stroke-width="1.6666666666666665" x1="255.71428571428572" x2="440.35714285714283" stroke="black" y1="420.0"/>
<line x1="257.85714285714283" x2="431.07142857142856" y1="498.0" style="stroke-dasharray: 9, 5" y2="152.0" stroke="black" stroke-width="0.8333333333333333"/>
<line x1="257.85714285714283" x2="432.5" y1="498.0" style="stroke-dasharray: 9, 5" y2="274.0" stroke="black" stroke-width="0.41666666666666663"/>
<line y2="884.0" stroke-width="0.8333333333333333" x1="257.85714285714283" x2="440.0" stroke="black" y1="498.0"/>
<line x1="262.5" x2="430.7142857142857" y1="576.0" style="stroke-dasharray: 9, 5" y2="213.0" stroke="black" stroke-width="0.41666666666666663"/>
<line y2="335.0" stroke-width="0.41666666666666663" x1="262.5" x2="435.7142857142857" stroke="black" y1="576.0"/>
<line y2="396.0" stroke-width="0.41666666666666663" x1="262.5" x2="436.07142857142856" stroke="black" y1="576.0"/>
<line y2="518.0" stroke-width="0.41666666666666663" x1="262.5" x2="436.42857142857144" stroke="black" y1="576.0"/>
<line x1="262.5" x2="433.92857142857144" y1="576.0" style="stroke-dasharray: 9, 5" y2="640.0" stroke="black" stroke-width="0.41666666666666663"/>
<line x1="262.5" x2="440.0" y1="576.0" style="stroke-dasharray: 9, 5" y2="884.0" stroke="black" stroke-width="0.8333333333333333"/>
<line x1="262.5" x2="440.35714285714283" y1="576.0" style="stroke-dasharray: 9, 5" y2="1067.0" stroke="black" stroke-width="1.0"/>
<line y2="457.0" stroke-width="1.5" x1="254.64285714285714" x2="435.35714285714283" stroke="black" y1="654.0"/>
<line y2="823.0" stroke-width="0.7142857142857142" x1="254.64285714285714" x2="439.2857142857143" stroke="black" y1="654.0"/>
<line x1="255.71428571428572" x2="425.7142857142857" y1="732.0" style="stroke-dasharray: 9, 5" y2="30.0" stroke="black" stroke-width="0.5"/>
<line y2="152.0" stroke-width="1.0" x1="255.71428571428572" x2="431.07142857142856" stroke="black" y1="732.0"/>
<line x1="255.71428571428572" x2="440.35714285714283" y1="732.0" style="stroke-dasharray: 9, 5" y2="945.0" stroke="black" stroke-width="0.8333333333333333"/>
<line x1="255.71428571428572" x2="440.35714285714283" y1="732.0" style="stroke-dasharray: 9, 5" y2="1067.0" stroke="black" stroke-width="1.0"/>
<line x1="250.35714285714286" x2="437.14285714285717" y1="810.0" style="stroke-dasharray: 9, 5" y2="579.0" stroke="black" stroke-width="0.5555555555555556"/>
<line x1="250.35714285714286" x2="439.64285714285717" y1="810.0" style="stroke-dasharray: 9, 5" y2="762.0" stroke="black" stroke-width="0.625"/>
<line y2="884.0" stroke-width="1.6666666666666665" x1="248.57142857142858" x2="440.0" stroke="black" y1="888.0"/>
<line x1="247.5" x2="436.42857142857144" y1="966.0" style="stroke-dasharray: 9, 5" y2="518.0" stroke="black" stroke-width="1.0"/>
<line x1="251.78571428571428" x2="430.7142857142857" y1="1044.0" style="stroke-dasharray: 9, 5" y2="213.0" stroke="black" stroke-width="1.25"/>
<line y2="457.0" stroke-width="1.25" x1="251.78571428571428" x2="435.35714285714283" stroke="black" y1="1044.0"/>
<line y2="1372.0" stroke-width="1.6666666666666665" x1="251.78571428571428" x2="440.35714285714283" stroke="black" y1="1044.0"/>
<line x1="250.35714285714286" x2="432.5" y1="1122.0" style="stroke-dasharray: 9, 5" y2="274.0" stroke="black" stroke-width="2.5"/>
<line y2="640.0" stroke-width="2.5" x1="250.35714285714286" x2="433.92857142857144" stroke="black" y1="1122.0"/>
<line x1="246.78571428571428" x2="436.07142857142856" y1="1356.0" style="stroke-dasharray: 9, 5" y2="396.0" stroke="black" stroke-width="1.6666666666666665"/>
<line y2="1006.0" stroke-width="3.333333333333333" x1="246.78571428571428" x2="442.85714285714283" stroke="black" y1="1356.0"/>
</svg>

