<?xml version="1.0" encoding="UTF-8"?>
<svg xmlns:xlink="http://www.w3.org/1999/xlink" xmlns="http://www.w3.org/2000/svg" contentScriptType="text/ecmascript" width="400" zoomAndPan="magnify" contentStyleType="text/css" viewBox="0 0 400 120" height="120" preserveAspectRatio="xMidYMid meet" version="1.0">
<defs id="defs4">
<marker refY="0" preserveAspectRatio="xMidYMid meet" id="TriangleOutL" style="overflow:visible" orient="auto" refX="0">
<path style="fill-rule:evenodd;stroke:#000000;stroke-width:1pt;marker-start:none" d="M 5.77,0 L -2.88,5 L -2.88,-5 L 5.77,0 z" transform="scale(0.8,0.8)"/>
</marker>
</defs>
<circle fill="#FFFFFF" r="40" cx="40" cy="80" stroke="#000000"/>
<text x="40" y="80" style="font-size:10px;fill:#000000;font-family:Verdana" text-anchor="middle">1398</text>
<line x1="40" x2="80" y1="40" style="marker-end:url(#TriangleOutL)" y2="0" stroke="black" stroke-width="1"/>
<text x="60" y="15" style="font-size:10px;fill:#000000;font-family:Verdana" transform="rotate(-45 60 20)" text-anchor="middle">975</text>
<circle fill="#FFFFFF" r="40" cx="200" cy="80" stroke="#000000"/>
<text x="200" y="80" style="font-size:10px;fill:#000000;font-family:Verdana" text-anchor="middle">1849</text>
<line x1="160" x2="200" y1="0" style="marker-end:url(#TriangleOutL)" y2="40" stroke="black" stroke-width="1"/>
<text x="180" y="15" style="font-size:10px;fill:#000000;font-family:Verdana" transform="rotate(45 180 20)" text-anchor="middle">1426</text>
<line x1="80" x2="160" y1="80" style="marker-end:url(#TriangleOutL)" y2="80" stroke="black" stroke-width="1"/>
<text x="120" y="75" style="font-size:10px;fill:#000000;font-family:Verdana" text-anchor="middle">423 (0.15)</text>
<line x1="200" x2="240" y1="40" style="marker-end:url(#TriangleOutL)" y2="0" stroke="black" stroke-width="1"/>
<text x="220" y="15" style="font-size:10px;fill:#000000;font-family:Verdana" transform="rotate(-45 220 20)" text-anchor="middle">1145</text>
<circle fill="#FFFFFF" r="40" cx="360" cy="80" stroke="#000000"/>
<text x="360" y="80" style="font-size:10px;fill:#000000;font-family:Verdana" text-anchor="middle">3668</text>
<line x1="320" x2="360" y1="0" style="marker-end:url(#TriangleOutL)" y2="40" stroke="black" stroke-width="1"/>
<text x="340" y="15" style="font-size:10px;fill:#000000;font-family:Verdana" transform="rotate(45 340 20)" text-anchor="middle">2964</text>
<line x1="240" x2="320" y1="80" style="marker-end:url(#TriangleOutL)" y2="80" stroke="black" stroke-width="1"/>
<text x="280" y="75" style="font-size:10px;fill:#000000;font-family:Verdana" text-anchor="middle">704 (0.15)</text>
</svg>

